<?xml version="1.0" encoding="UTF-8" ?>
<!DOCTYPE svg PUBLIC "-//W3C//DTD SVG 1.1//EN" "http://www.w3.org/Graphics/SVG/1.1/DTD/svg11.dtd">
<svg width="1529pt" height="647pt" viewBox="0 0 1529 647" version="1.1" xmlns="http://www.w3.org/2000/svg">
<g id="#474e4588">
<path fill="#474e45" opacity="0.53" d=" M 65.39 0.00 L 83.50 0.00 L 85.28 0.86 C 75.73 0.75 66.15 0.63 56.67 1.93 C 59.59 1.37 62.49 0.69 65.39 0.00 Z" />
</g>
<g id="#376b2eff">
<path fill="#376b2e" opacity="1.00" d=" M 56.67 1.93 C 66.15 0.63 75.73 0.75 85.28 0.86 C 103.91 2.29 122.60 10.93 133.34 26.64 C 146.53 45.39 148.72 69.21 148.19 91.48 C 138.12 91.59 128.05 91.47 117.98 91.57 C 116.46 91.46 114.82 91.72 113.40 91.10 C 113.04 87.06 113.35 83.00 113.26 78.95 C 113.22 67.66 111.32 55.78 104.66 46.38 C 99.10 38.62 89.69 34.61 80.39 33.81 C 77.50 33.33 74.55 33.26 71.66 33.78 C 63.32 34.50 55.07 37.63 49.19 43.74 C 47.72 43.91 46.95 44.74 46.88 46.22 C 41.86 54.28 38.98 63.55 38.71 73.05 C 38.20 81.92 38.43 90.99 41.26 99.49 C 45.23 112.86 53.96 124.17 63.61 133.99 C 64.04 135.30 64.95 135.96 66.33 135.98 C 66.76 136.65 67.18 137.33 67.61 138.00 C 67.90 139.43 68.77 140.17 70.22 140.22 C 72.06 141.77 73.89 143.35 75.66 144.98 C 75.90 146.42 76.75 147.18 78.20 147.28 C 79.00 147.81 79.80 148.35 80.61 148.88 C 80.95 150.20 81.80 150.93 83.17 151.09 C 100.65 165.73 119.42 179.67 132.23 198.88 C 145.40 217.66 150.30 241.30 148.22 263.95 C 146.95 282.62 141.43 301.98 128.16 315.75 C 126.48 315.84 125.74 316.67 125.94 318.23 C 120.22 322.94 114.10 327.30 107.09 329.88 C 96.98 334.19 85.89 335.31 75.02 335.71 C 63.81 335.52 52.40 334.27 41.96 329.94 C 35.49 327.42 29.65 323.58 24.24 319.27 C 24.01 317.87 23.18 317.10 21.75 316.97 C 20.49 315.46 19.25 313.96 18.04 312.42 C 18.11 310.90 17.40 310.01 15.90 309.75 C 8.14 299.38 3.95 286.75 2.13 274.03 C -0.16 260.98 0.65 247.69 0.52 234.52 C 12.00 234.45 23.48 234.50 34.96 234.49 C 35.24 245.29 34.34 256.17 35.73 266.92 C 36.93 277.07 40.85 287.21 48.49 294.25 C 48.94 295.57 49.86 296.23 51.24 296.25 C 62.75 303.41 77.69 303.95 90.18 299.16 C 100.54 295.09 107.09 284.96 109.64 274.48 C 112.87 260.48 112.72 245.35 107.49 231.84 C 101.21 215.26 88.05 202.75 75.13 191.19 C 74.97 189.68 74.13 188.92 72.62 188.91 C 66.02 183.84 59.64 178.47 53.20 173.20 C 53.06 171.68 52.22 170.92 50.69 170.93 C 41.87 163.97 33.65 156.21 26.34 147.67 C 11.34 130.79 2.26 108.65 2.05 85.99 C 1.61 65.49 4.64 43.83 16.54 26.61 C 25.64 13.14 40.82 4.63 56.67 1.93 Z" />
<path fill="#376b2e" opacity="1.00" d=" M 254.12 3.42 C 269.60 3.60 285.09 3.51 300.57 3.47 C 325.07 79.92 349.59 156.37 374.09 232.83 C 374.46 234.21 374.84 235.61 375.15 237.02 C 375.32 237.58 375.66 238.70 375.84 239.26 C 377.28 240.58 377.37 237.83 376.82 237.06 C 376.76 159.30 376.83 81.53 376.79 3.77 C 387.50 3.85 398.21 3.78 408.91 3.74 C 409.12 108.49 408.94 213.25 409.00 318.01 C 408.93 322.65 409.29 327.30 408.75 331.92 C 405.21 332.63 401.59 332.23 398.02 332.26 C 389.65 332.12 381.27 332.43 372.91 332.18 C 371.25 332.44 370.65 330.78 369.93 329.68 C 343.86 246.68 317.45 163.79 291.25 80.82 C 290.00 76.79 288.80 72.74 287.13 68.86 C 286.73 108.57 287.07 148.30 286.96 188.02 C 286.88 236.19 287.10 284.37 286.84 332.54 C 275.94 332.57 265.03 332.41 254.12 332.63 C 254.00 222.89 254.00 113.15 254.12 3.42 Z" />
<path fill="#376b2e" opacity="1.00" d=" M 433.94 3.87 C 486.27 3.97 538.60 3.93 590.93 3.89 C 590.93 14.92 591.03 25.94 590.88 36.96 C 570.80 36.92 550.73 36.95 530.65 36.94 C 530.34 135.45 530.73 233.97 530.45 332.48 C 518.33 332.63 506.21 332.41 494.09 332.61 C 494.00 234.05 494.07 135.49 494.06 36.93 C 473.90 36.82 453.73 37.22 433.58 36.73 C 434.40 25.81 433.64 14.82 433.94 3.87 Z" />
<path fill="#376b2e" opacity="1.00" d=" M 906.75 3.96 C 922.05 3.80 937.36 4.23 952.65 3.75 C 964.21 38.54 975.07 73.58 986.37 108.46 C 999.99 150.98 1013.67 193.49 1027.22 236.02 C 1027.27 237.42 1027.70 238.84 1028.79 239.81 C 1029.13 238.59 1029.16 237.37 1028.89 236.14 L 1028.85 235.31 C 1029.14 158.10 1028.69 80.89 1029.08 3.68 C 1039.68 3.69 1050.29 3.73 1060.90 3.67 C 1061.25 46.76 1060.93 89.86 1061.05 132.95 C 1060.96 199.44 1061.21 265.92 1060.92 332.40 C 1048.91 332.26 1036.89 332.42 1024.88 332.36 C 1023.08 332.76 1022.76 330.81 1022.10 329.69 C 995.16 243.75 967.64 157.97 940.71 72.03 C 940.70 70.77 941.15 68.90 939.77 68.19 C 938.07 68.51 938.70 70.82 939.05 71.96 C 939.25 158.72 939.13 245.51 939.11 332.28 C 928.34 331.75 917.55 332.23 906.78 332.01 C 906.60 323.68 906.69 315.35 906.66 307.02 C 906.72 206.00 906.55 104.98 906.75 3.96 Z" />
<path fill="#376b2e" opacity="1.00" d=" M 1103.00 3.99 C 1112.89 4.21 1122.86 3.56 1132.70 4.30 C 1133.76 18.82 1132.34 33.49 1133.45 48.04 C 1133.87 58.03 1133.21 68.02 1133.31 78.01 C 1133.71 102.98 1133.41 127.98 1133.47 152.96 C 1133.58 207.78 1133.50 262.60 1133.01 317.41 C 1132.63 319.49 1132.17 321.55 1131.73 323.61 C 1132.49 323.20 1133.26 322.78 1134.05 322.37 C 1133.88 324.39 1133.74 326.40 1133.60 328.42 C 1132.17 328.70 1130.76 328.99 1129.37 329.27 C 1129.81 329.82 1130.26 330.36 1130.73 330.91 C 1123.09 330.80 1115.44 331.16 1107.83 330.52 C 1114.58 329.48 1121.45 330.56 1128.21 329.52 C 1119.00 328.45 1109.72 329.31 1100.49 329.03 C 1100.73 328.47 1100.99 327.92 1101.26 327.37 C 1100.80 326.59 1100.36 325.81 1099.95 325.03 C 1100.45 322.04 1100.89 319.03 1100.95 316.00 C 1100.87 231.66 1100.97 147.32 1100.92 62.98 C 1101.06 46.45 1100.60 29.91 1101.15 13.38 C 1101.09 11.50 1100.57 9.68 1100.17 7.86 C 1101.10 6.56 1102.04 5.28 1103.00 3.99 Z" />
<path fill="#376b2e" opacity="1.00" d=" M 1173.11 3.88 C 1210.07 3.93 1247.03 3.88 1283.99 3.90 C 1295.22 3.65 1306.50 4.41 1317.71 3.53 C 1318.17 14.65 1318.09 25.82 1317.78 36.93 C 1302.19 73.81 1286.07 110.48 1270.38 147.33 C 1266.06 156.50 1262.73 166.22 1257.98 175.13 C 1257.11 175.77 1256.70 176.61 1256.77 177.67 C 1256.02 182.01 1253.46 185.82 1251.94 189.93 C 1241.97 213.29 1231.83 236.58 1221.85 259.94 C 1216.38 273.00 1210.34 285.83 1205.25 299.04 C 1242.58 299.06 1279.91 298.88 1317.24 299.13 C 1317.22 299.55 1317.18 300.41 1317.16 300.84 C 1316.75 311.26 1317.19 321.70 1316.90 332.12 C 1267.24 332.11 1217.57 332.01 1167.91 332.17 C 1167.90 321.01 1167.85 309.85 1167.89 298.69 C 1197.41 230.19 1226.72 161.60 1256.16 93.06 C 1257.42 90.33 1258.22 87.31 1260.05 84.88 C 1260.87 84.24 1261.27 83.39 1261.23 82.34 C 1262.26 77.50 1264.94 73.14 1266.66 68.51 C 1271.00 57.95 1275.90 47.62 1280.03 36.97 C 1244.30 36.90 1208.57 36.97 1172.83 36.93 C 1173.25 25.92 1172.78 14.90 1173.11 3.88 Z" />
<path fill="#376b2e" opacity="1.00" d=" M 1350.86 3.89 C 1395.88 3.89 1440.90 3.96 1485.93 3.86 C 1486.14 14.00 1485.79 24.16 1486.16 34.30 C 1486.18 34.95 1486.22 36.24 1486.23 36.88 C 1453.32 37.03 1420.40 36.90 1387.49 36.94 C 1386.83 41.27 1387.04 45.65 1387.07 50.01 C 1387.14 82.95 1387.01 115.88 1387.13 148.81 L 1387.88 149.12 C 1414.46 149.42 1441.07 148.98 1467.67 149.34 C 1467.89 160.23 1467.77 171.13 1467.74 182.03 C 1441.16 182.38 1414.58 181.92 1388.00 182.25 L 1387.18 182.32 C 1386.99 221.15 1387.06 260.00 1387.14 298.84 L 1387.84 298.92 C 1420.62 299.18 1453.43 298.88 1486.21 299.06 C 1485.74 310.15 1486.32 321.25 1485.92 332.34 C 1440.99 332.31 1396.06 332.35 1351.14 332.32 C 1350.74 223.47 1351.26 114.61 1350.88 5.77 C 1350.87 5.30 1350.86 4.36 1350.86 3.89 Z" />
<path fill="#376b2e" opacity="1.00" d=" M 1234.12 379.76 C 1247.77 380.08 1261.40 379.40 1275.05 379.52 C 1284.06 379.62 1293.14 378.74 1302.09 380.29 C 1311.44 381.91 1320.87 385.48 1327.75 392.21 C 1328.21 393.09 1328.93 393.71 1329.89 394.05 C 1330.15 394.56 1330.66 395.59 1330.92 396.10 C 1331.03 397.17 1331.62 397.85 1332.70 398.14 C 1334.15 398.63 1334.71 400.24 1335.55 401.41 C 1341.08 410.28 1343.47 420.69 1344.74 430.95 C 1345.67 444.30 1345.49 457.68 1345.50 471.06 C 1345.67 480.13 1344.90 489.32 1342.30 498.05 C 1339.45 508.18 1333.45 517.69 1324.69 523.70 C 1309.32 534.19 1289.87 534.29 1271.98 533.97 C 1265.63 533.89 1259.29 534.24 1252.95 534.17 C 1253.14 570.10 1253.63 606.01 1253.96 641.94 C 1248.11 641.81 1242.27 642.45 1236.43 642.02 C 1236.12 615.70 1236.02 589.38 1235.82 563.06 C 1234.86 510.74 1235.23 458.39 1234.23 406.07 C 1234.33 397.30 1234.12 388.53 1234.12 379.76 M 1251.53 395.57 C 1251.63 410.72 1251.79 425.88 1251.77 441.03 C 1252.55 452.32 1251.83 463.65 1252.35 474.95 C 1252.26 489.43 1252.72 503.89 1252.57 518.36 C 1263.05 518.44 1273.53 518.09 1284.02 518.25 C 1289.21 518.48 1294.32 517.16 1299.53 517.33 C 1299.50 517.15 1299.46 516.79 1299.43 516.60 C 1309.81 515.04 1319.58 508.58 1323.82 498.80 C 1330.13 484.73 1327.88 468.96 1328.22 454.02 C 1328.51 443.14 1327.59 432.27 1326.30 421.49 C 1326.11 421.53 1325.74 421.61 1325.55 421.65 C 1323.11 408.97 1312.71 397.64 1299.51 396.33 C 1299.50 396.16 1299.48 395.81 1299.46 395.64 C 1295.29 395.66 1291.14 395.08 1286.98 395.20 C 1275.17 395.66 1263.34 395.23 1251.53 395.57 Z" />
</g>
<g>

<path fill="#fff" opacity="1.00" d=" M 139.63 389.86 C 141.21 389.88 142.79 389.90 144.37 389.93 C 144.43 408.43 144.24 426.93 144.45 445.44 C 142.80 445.43 141.14 445.45 139.49 445.49 C 139.73 426.95 139.50 408.40 139.63 389.86 Z" />
</g>
<g>
<path fill="#30332e" opacity="0.27" d=" M 375.98 5.97 C 375.79 4.71 376.24 2.76 377.93 3.03 C 388.01 2.97 398.11 2.94 408.19 3.04 C 409.86 2.68 409.34 5.04 409.61 5.95 C 409.56 113.30 409.59 220.65 409.59 327.99 C 409.51 329.67 409.36 331.35 409.20 333.03 C 396.73 332.93 384.25 333.11 371.79 332.96 C 370.11 333.11 370.31 330.69 369.93 329.68 C 370.65 330.78 371.25 332.44 372.91 332.18 C 381.27 332.43 389.65 332.12 398.02 332.26 C 401.59 332.23 405.21 332.63 408.75 331.92 C 409.29 327.30 408.93 322.65 409.00 318.01 C 408.94 213.25 409.12 108.49 408.91 3.74 C 398.21 3.78 387.50 3.85 376.79 3.77 C 376.83 81.53 376.76 159.30 376.82 237.06 C 376.40 237.05 375.56 237.03 375.15 237.02 C 374.84 235.61 374.46 234.21 374.09 232.83 C 374.70 234.03 375.30 235.24 375.92 236.45 C 376.08 159.63 375.98 82.80 375.98 5.97 Z" />
</g>
<g>
<path fill="#424640" opacity="0.39" d=" M 433.26 3.22 C 485.78 2.90 538.31 3.17 590.84 3.08 L 590.93 3.89 C 538.60 3.93 486.27 3.97 433.94 3.87 C 433.64 14.82 434.40 25.81 433.58 36.73 L 433.43 37.62 C 432.84 26.18 432.99 14.68 433.26 3.22 Z" />
</g>
<g>
<path fill="#376b2e" opacity="1.00" d=" M 624.93 34.85 C 656.51 11.32 696.78 -0.23 736.02 3.02 C 765.98 5.13 795.14 16.09 819.50 33.59 C 820.60 34.46 821.80 35.26 822.65 36.41 C 823.09 37.37 823.82 37.96 824.85 38.19 C 827.31 39.12 829.10 41.19 831.08 42.85 C 833.64 45.32 836.66 47.33 838.86 50.16 C 839.28 51.07 839.95 51.74 840.87 52.17 C 849.32 60.51 856.88 69.93 862.77 80.23 C 863.07 80.66 863.67 81.53 863.97 81.97 C 886.34 118.27 893.29 163.71 883.24 205.14 C 875.32 238.29 856.83 268.86 831.04 291.16 C 810.35 309.30 784.94 321.93 758.06 327.71 C 755.28 328.24 752.50 329.17 749.64 328.85 C 748.48 328.52 747.65 328.85 747.16 329.82 C 729.19 332.01 710.87 332.09 693.06 328.64 C 692.56 328.46 691.57 328.11 691.07 327.93 C 687.09 327.86 683.28 326.45 679.46 325.50 C 659.40 320.06 640.50 310.58 623.91 298.09 C 622.99 297.32 621.93 296.66 621.35 295.60 C 620.94 294.61 620.22 294.02 619.18 293.83 C 614.19 291.10 610.52 286.45 606.28 282.71 C 603.68 280.65 602.19 276.96 603.84 273.85 C 604.67 271.56 607.26 270.99 609.17 269.92 C 611.28 270.55 613.57 271.10 615.03 272.91 C 644.07 302.97 686.17 319.97 727.96 318.35 C 767.23 317.41 805.63 300.02 832.70 271.62 C 855.83 247.39 870.72 215.36 874.02 182.00 C 877.64 146.69 868.27 110.12 847.90 81.02 C 847.24 80.00 846.58 78.96 846.17 77.82 C 845.92 76.81 845.34 76.06 844.43 75.58 C 839.10 69.91 834.53 63.49 828.72 58.25 C 826.91 56.39 824.54 54.97 823.24 52.68 C 822.88 51.65 822.19 51.03 821.15 50.81 C 817.87 49.37 815.40 46.62 812.47 44.62 C 797.30 33.60 780.10 25.35 761.99 20.50 C 722.88 9.96 679.59 16.14 644.99 37.18 C 635.07 42.86 626.16 50.10 617.78 57.82 C 616.88 58.27 616.22 58.95 615.79 59.84 C 589.87 85.85 574.00 121.46 571.90 158.12 C 571.93 164.52 561.92 166.24 559.65 160.34 C 558.27 155.36 559.65 149.94 560.38 144.91 C 561.02 144.08 561.24 143.15 561.03 142.13 C 560.70 138.26 562.09 134.52 562.75 130.76 C 570.95 92.63 593.62 58.02 624.93 34.85 Z" />
<path fill="#376b2e" opacity="1.00" d=" M 706.82 42.12 C 742.34 37.77 779.89 48.33 806.74 72.29 C 807.25 73.13 807.97 73.73 808.91 74.09 C 837.09 99.08 852.67 137.38 850.46 174.95 C 849.23 196.23 842.93 217.39 831.45 235.42 C 824.33 247.21 814.90 257.47 804.45 266.38 C 802.34 267.98 800.43 270.04 797.87 270.87 C 796.82 271.04 796.05 271.60 795.56 272.53 C 790.35 277.34 783.60 280.12 777.39 283.42 C 748.95 296.83 715.36 299.01 685.45 289.31 C 680.77 287.80 680.15 280.74 684.05 278.07 C 687.30 275.87 691.28 277.66 694.67 278.51 C 701.43 280.65 708.52 281.22 715.50 282.20 C 720.75 283.19 726.14 283.10 731.40 282.21 C 752.56 280.50 773.27 273.14 790.45 260.63 C 795.83 257.03 800.32 252.27 805.31 248.26 C 806.30 247.94 806.96 247.28 807.29 246.28 C 811.71 240.38 816.69 234.80 820.48 228.40 C 833.07 208.12 839.11 183.82 837.38 160.00 C 835.26 129.46 820.24 99.93 796.45 80.60 C 795.34 79.64 794.17 78.72 793.30 77.53 C 792.81 76.59 792.05 76.01 791.03 75.80 C 789.42 75.27 788.09 74.20 786.71 73.29 C 757.24 53.50 718.23 48.58 684.91 61.02 C 675.27 64.25 666.47 69.42 657.97 74.90 C 657.03 75.21 656.28 75.77 655.72 76.57 C 626.98 97.83 609.04 133.17 609.76 169.01 C 609.42 178.49 611.31 187.83 613.23 197.06 C 614.06 201.01 610.72 204.18 607.06 204.76 C 606.34 204.48 604.89 203.93 604.17 203.65 C 604.07 202.44 603.42 201.84 602.20 201.84 L 601.32 201.77 C 591.41 166.93 597.74 127.91 617.90 97.84 C 635.54 71.10 663.72 51.44 695.04 44.51 C 698.10 43.89 701.17 42.77 704.35 43.15 C 705.50 43.46 706.33 43.12 706.82 42.12 Z" />
<path fill="#376b2e" opacity="1.00" d=" M 712.97 84.36 C 729.43 82.30 746.58 84.97 761.40 92.52 C 766.79 95.28 772.26 98.26 776.63 102.49 C 777.09 103.40 777.82 104.01 778.81 104.30 C 783.81 108.14 788.30 112.99 791.73 118.27 C 792.05 118.70 792.68 119.54 793.00 119.96 C 799.63 128.96 803.87 139.57 806.48 150.40 C 806.83 152.02 807.02 153.70 806.86 155.37 C 806.54 156.54 806.88 157.36 807.89 157.83 C 808.25 166.55 808.65 175.39 807.00 184.01 C 801.46 216.01 775.87 243.69 744.08 250.88 C 739.68 252.04 735.07 247.41 736.68 243.04 C 737.00 239.30 740.98 238.32 743.97 237.53 C 758.23 233.44 770.92 224.59 780.09 212.97 C 780.83 212.04 781.54 211.08 782.49 210.33 C 783.41 209.82 783.97 209.06 784.17 208.02 C 785.21 204.98 787.16 202.35 788.46 199.42 C 792.32 191.60 794.20 183.00 795.26 174.39 C 796.02 170.48 795.97 166.46 795.24 162.55 C 793.72 148.20 788.43 134.11 779.07 123.03 C 767.23 108.22 749.23 98.85 730.45 96.80 C 726.22 95.85 721.86 95.92 717.62 96.75 C 707.26 97.87 696.97 100.68 687.95 105.98 C 686.26 106.92 684.73 108.24 682.87 108.83 C 682.43 109.12 681.55 109.69 681.10 109.98 C 676.34 114.26 671.21 118.24 667.36 123.44 C 652.34 141.78 647.44 167.72 654.78 190.27 C 656.13 193.37 656.05 197.87 652.67 199.61 C 650.44 201.27 647.66 200.21 645.22 199.82 L 645.12 198.73 C 645.09 197.50 644.47 196.85 643.26 196.79 C 631.73 165.36 641.21 127.44 666.56 105.49 L 667.20 105.22 C 668.20 104.96 668.92 104.35 669.37 103.40 C 677.53 95.53 688.18 90.56 698.94 87.23 C 702.63 86.24 706.35 84.81 710.23 85.09 C 711.24 85.25 712.15 85.01 712.97 84.36 Z" />
<path fill="#376b2e" opacity="1.00" d=" M 1442.38 377.55 C 1450.74 377.31 1459.11 377.73 1467.47 377.27 C 1487.09 461.16 1506.51 545.09 1525.96 629.02 C 1526.79 632.42 1527.80 635.82 1527.94 639.35 C 1522.29 639.49 1516.66 639.88 1511.02 639.72 C 1506.30 620.43 1501.96 601.06 1497.22 581.78 C 1482.13 582.05 1467.03 581.92 1451.94 582.15 C 1439.97 581.87 1428.01 582.79 1416.04 582.46 C 1411.48 601.67 1407.80 621.11 1403.24 640.31 C 1398.11 641.39 1392.58 640.50 1387.31 640.72 C 1405.83 553.03 1423.83 465.23 1442.38 377.55 M 1454.15 398.79 C 1453.52 401.95 1452.89 405.10 1452.35 408.28 C 1452.21 408.37 1451.92 408.57 1451.77 408.67 C 1451.26 414.74 1449.31 420.57 1448.34 426.57 C 1438.32 473.51 1428.15 520.41 1418.36 567.40 C 1436.24 567.23 1454.14 567.48 1472.01 566.85 C 1479.54 566.75 1487.10 567.11 1494.63 566.48 C 1482.15 514.01 1469.76 461.52 1457.31 409.04 C 1456.37 405.59 1456.12 401.85 1454.15 398.79 Z" />
<path fill="#376b2e" opacity="1.00" d=" M 1085.79 381.38 C 1119.09 380.75 1152.39 380.82 1185.70 380.23 C 1185.79 385.54 1185.87 390.85 1185.68 396.16 C 1158.31 396.70 1130.93 396.78 1103.56 396.96 C 1103.21 411.30 1103.90 425.63 1103.72 439.97 C 1104.18 462.87 1103.92 485.78 1104.48 508.68 C 1127.05 508.73 1149.61 508.14 1172.19 508.19 C 1172.20 513.40 1172.05 518.61 1172.29 523.82 C 1150.84 524.51 1129.37 524.33 1107.92 524.76 C 1106.86 525.09 1104.75 524.11 1104.54 525.70 C 1105.01 564.96 1105.04 604.25 1105.73 643.52 C 1099.94 643.55 1094.17 643.49 1088.40 643.55 C 1087.54 632.00 1088.38 620.40 1087.83 608.84 C 1087.15 533.02 1086.53 457.20 1085.79 381.38 Z" />
</g>
<g id="#2325222e">
<path fill="#232522" opacity="0.18" d=" M 1028.37 3.18 C 1039.44 2.85 1050.55 2.79 1061.62 3.21 C 1061.73 105.13 1061.63 207.06 1061.67 308.99 C 1061.51 317.00 1062.06 325.04 1061.35 333.03 C 1048.86 332.97 1036.36 333.16 1023.88 332.96 C 1021.86 333.24 1022.48 330.86 1022.10 329.69 C 1022.76 330.81 1023.08 332.76 1024.88 332.36 C 1036.89 332.42 1048.91 332.26 1060.92 332.40 C 1061.21 265.92 1060.96 199.44 1061.05 132.95 C 1060.93 89.86 1061.25 46.76 1060.90 3.67 C 1050.29 3.73 1039.68 3.69 1029.08 3.68 C 1028.69 80.89 1029.14 158.10 1028.85 235.31 C 1028.03 231.58 1028.30 227.75 1028.33 223.97 C 1028.33 150.37 1028.25 76.77 1028.37 3.18 Z" />
</g>
<g>
<path fill="#376b2e" opacity="0.66" d=" M 1098.78 3.72 C 1102.78 2.90 1106.89 3.37 1110.95 3.31 C 1119.16 3.40 1127.38 3.16 1135.59 3.36 C 1135.82 110.90 1135.58 218.45 1135.71 326.00 C 1135.69 328.20 1135.61 330.40 1135.52 332.61 C 1127.03 332.95 1118.55 332.64 1110.07 332.73 C 1106.30 332.64 1102.49 333.12 1098.79 332.26 C 1110.85 331.67 1122.93 332.20 1135.00 332.00 C 1135.09 224.00 1134.96 116.00 1135.08 8.01 C 1134.91 6.74 1135.12 5.25 1134.26 4.20 C 1133.56 7.41 1134.05 10.72 1133.94 13.98 C 1134.08 40.67 1133.89 67.35 1133.51 94.02 C 1133.63 162.35 1133.17 230.68 1133.91 299.00 C 1133.69 305.64 1134.55 312.36 1133.22 318.92 C 1133.16 318.55 1133.06 317.79 1133.01 317.41 C 1133.50 262.60 1133.58 207.78 1133.47 152.96 C 1133.41 127.98 1133.71 102.98 1133.31 78.01 C 1133.21 68.02 1133.87 58.03 1133.45 48.04 C 1132.34 33.49 1133.76 18.82 1132.70 4.30 C 1122.86 3.56 1112.89 4.21 1103.00 3.99 C 1101.58 3.93 1100.17 3.84 1098.78 3.72 Z" />
</g>
<g>
<path fill="#3b403a" opacity="0.35" d=" M 1172.70 3.47 C 1176.05 2.55 1179.59 3.11 1183.04 3.02 C 1224.34 2.99 1265.65 3.04 1306.95 3.01 C 1310.83 3.02 1314.73 2.81 1318.58 3.40 L 1317.71 3.53 C 1306.50 4.41 1295.22 3.65 1283.99 3.90 C 1247.03 3.88 1210.07 3.93 1173.11 3.88 C 1172.78 14.90 1173.25 25.92 1172.83 36.93 C 1172.06 31.32 1172.62 25.65 1172.49 20.01 C 1172.60 14.50 1172.21 8.96 1172.70 3.47 Z" />
</g>
<g>
<path fill="#3c403a" opacity="0.35" d=" M 1350.99 2.99 C 1379.33 3.05 1407.66 2.99 1435.99 3.01 C 1452.80 3.16 1469.63 2.74 1486.43 3.24 C 1486.47 13.59 1486.86 23.98 1486.16 34.30 C 1485.79 24.16 1486.14 14.00 1485.93 3.86 C 1440.90 3.96 1395.88 3.89 1350.86 3.89 L 1350.99 2.99 Z" />
</g>
<g>
<path fill="#376b2e" opacity="1.00" d=" M 180.81 3.99 C 192.87 3.78 204.95 4.28 217.00 3.69 C 216.87 113.22 216.95 222.76 216.96 332.29 C 204.92 331.75 192.86 332.21 180.81 332.05 C 180.49 313.39 180.78 294.72 180.67 276.05 C 180.77 185.37 180.49 94.67 180.81 3.99 Z" />
</g>
<g>
<path fill="#376b2e" opacity="1.00" d=" M 1098.78 3.72 C 1100.17 3.84 1101.58 3.93 1103.00 3.99 C 1102.04 5.28 1101.10 6.56 1100.17 7.86 C 1100.57 9.68 1101.09 11.50 1101.15 13.38 C 1100.60 29.91 1101.06 46.45 1100.92 62.98 C 1100.97 147.32 1100.87 231.66 1100.95 316.00 C 1100.89 319.03 1100.45 322.04 1099.95 325.03 C 1100.36 325.81 1100.80 326.59 1101.26 327.37 C 1100.99 327.92 1100.73 328.47 1100.49 329.03 C 1109.72 329.31 1119.00 328.45 1128.21 329.52 C 1121.45 330.56 1114.58 329.48 1107.83 330.52 C 1115.44 331.16 1123.09 330.80 1130.73 330.91 C 1130.26 330.36 1129.81 329.82 1129.37 329.27 C 1130.76 328.99 1132.17 328.70 1133.60 328.42 C 1133.74 326.40 1133.88 324.39 1134.05 322.37 C 1133.26 322.78 1132.49 323.20 1131.73 323.61 C 1132.17 321.55 1132.63 319.49 1133.01 317.41 C 1133.06 317.79 1133.16 318.55 1133.22 318.92 C 1134.55 312.36 1133.69 305.64 1133.91 299.00 C 1133.17 230.68 1133.63 162.35 1133.51 94.02 C 1133.89 67.35 1134.08 40.67 1133.94 13.98 C 1134.05 10.72 1133.56 7.41 1134.26 4.20 C 1135.12 5.25 1134.91 6.74 1135.08 8.01 C 1134.96 116.00 1135.09 224.00 1135.00 332.00 C 1122.93 332.20 1110.85 331.67 1098.79 332.26 C 1098.89 222.75 1098.91 113.24 1098.78 3.72 Z" />
</g>
<g id="#25282534">
<path fill="#252825" opacity="0.20" d=" M 1350.35 12.07 C 1350.31 9.95 1350.51 7.85 1350.88 5.77 C 1351.26 114.61 1350.74 223.47 1351.14 332.32 C 1396.06 332.35 1440.99 332.31 1485.92 332.34 C 1486.32 321.25 1485.74 310.15 1486.21 299.06 C 1487.05 304.34 1486.55 309.69 1486.67 315.00 C 1486.51 321.03 1487.17 327.09 1486.25 333.07 C 1441.00 332.84 1395.74 333.31 1350.50 332.84 C 1350.18 225.92 1350.48 118.99 1350.35 12.07 Z" />
</g>
<g id="#586352bd">
<path fill="#586352" opacity="0.74" d=" M 71.66 33.78 C 74.55 33.26 77.50 33.33 80.39 33.81 C 77.48 33.84 74.57 33.81 71.66 33.78 Z" />
</g>
<g id="#4b554899">
<path fill="#4b5548" opacity="0.60" d=" M 822.65 36.41 C 824.33 35.88 825.07 36.47 824.85 38.19 C 823.82 37.96 823.09 37.37 822.65 36.41 Z" />
</g>
<g id="#42474166">
<path fill="#424741" opacity="0.40" d=" M 1387.07 50.01 C 1387.04 45.65 1386.83 41.27 1387.49 36.94 C 1388.52 45.91 1387.63 54.97 1387.91 63.97 C 1387.89 92.36 1387.96 120.74 1387.88 149.12 L 1387.13 148.81 C 1387.01 115.88 1387.14 82.95 1387.07 50.01 Z" />
</g>
<g id="#4c514580">
<path fill="#4c5145" opacity="0.50" d=" M 704.35 43.15 C 704.57 41.57 705.39 41.23 706.82 42.12 C 706.33 43.12 705.50 43.46 704.35 43.15 Z" />
</g>
<g id="#556650bd">
<path fill="#556650" opacity="0.74" d=" M 46.88 46.22 C 46.95 44.74 47.72 43.91 49.19 43.74 C 49.00 45.11 48.22 45.93 46.88 46.22 Z" />
</g>
<g id="#26292537">
<path fill="#262925" opacity="0.22" d=" M 838.86 50.16 C 840.63 49.72 841.30 50.39 840.87 52.17 C 839.95 51.74 839.28 51.07 838.86 50.16 Z" />
</g>
<g id="#4e584daa">
<path fill="#4e584d" opacity="0.67" d=" M 821.15 50.81 C 822.19 51.03 822.88 51.65 823.24 52.68 C 821.54 53.11 820.85 52.48 821.15 50.81 Z" />
</g>
<g id="#26292638">
<path fill="#262926" opacity="0.22" d=" M 615.79 59.84 C 616.22 58.95 616.88 58.27 617.78 57.82 C 618.25 59.61 617.59 60.28 615.79 59.84 Z" />
</g>
<g>
<path fill="#fff" opacity="1.00" d=" M 394.54 390.47 C 400.11 389.40 405.83 389.78 411.39 390.74 C 415.85 392.73 418.91 397.08 419.16 401.99 C 419.38 411.33 419.16 420.67 419.26 430.02 C 419.30 435.19 418.08 440.81 413.74 444.11 C 413.22 444.21 412.16 444.41 411.63 444.51 C 406.15 446.39 400.20 444.82 394.52 445.46 C 394.69 427.14 394.66 408.80 394.54 390.47 M 399.77 394.85 C 399.57 410.13 399.96 425.42 399.55 440.70 C 403.16 440.54 406.83 440.84 410.40 440.19 C 412.69 439.05 413.69 436.41 413.72 433.97 C 413.97 423.66 413.83 413.34 413.80 403.03 C 413.93 400.74 413.18 398.56 412.40 396.44 L 411.09 396.78 L 411.62 395.61 C 408.19 394.65 404.47 394.03 401.01 395.20 C 400.70 395.11 400.08 394.93 399.77 394.85 Z" />
</g>
<g id="#23252130">
<path fill="#232521" opacity="0.19" d=" M 806.74 72.29 C 808.47 71.66 809.19 72.25 808.91 74.09 C 807.97 73.73 807.25 73.13 806.74 72.29 Z" />
</g>
<g id="#23262232">
<path fill="#232622" opacity="0.20" d=" M 655.72 76.57 C 656.28 75.77 657.03 75.21 657.97 74.90 C 658.20 76.73 657.45 77.29 655.72 76.57 Z" />
</g>
<g id="#4e58499a">
<path fill="#4e5849" opacity="0.60" d=" M 791.03 75.80 C 792.05 76.01 792.81 76.59 793.30 77.53 C 791.61 78.10 790.85 77.52 791.03 75.80 Z" />
</g>
<g id="#4a52468d">
<path fill="#4a5246" opacity="0.55" d=" M 844.43 75.58 C 845.34 76.06 845.92 76.81 846.17 77.82 C 844.41 78.01 843.83 77.27 844.43 75.58 Z" />
</g>
<g id="#3d433c6b">
<path fill="#3d433c" opacity="0.42" d=" M 862.77 80.23 L 863.69 80.22 L 864.30 81.11 L 863.97 81.97 C 863.67 81.53 863.07 80.66 862.77 80.23 Z" />
</g>
<g id="#474e4491">
<path fill="#474e44" opacity="0.57" d=" M 1260.05 84.88 C 1259.10 83.37 1259.50 82.52 1261.23 82.34 C 1261.27 83.39 1260.87 84.24 1260.05 84.88 Z" />
</g>
<g id="#4349416e">
<path fill="#434941" opacity="0.43" d=" M 710.23 85.09 C 710.63 83.41 711.54 83.17 712.97 84.36 C 712.15 85.01 711.24 85.25 710.23 85.09 Z" />
</g>
<g id="#586351b0">
<path fill="#586351" opacity="0.69" d=" M 717.62 96.75 C 721.86 95.92 726.22 95.85 730.45 96.80 C 726.17 97.00 721.89 97.01 717.62 96.75 Z" />
</g>
<g id="#42483d6b">
<path fill="#42483d" opacity="0.42" d=" M 776.63 102.49 C 778.34 101.92 779.06 102.52 778.81 104.30 C 777.82 104.01 777.09 103.40 776.63 102.49 Z" />
</g>
<g id="#4950468d">
<path fill="#495046" opacity="0.55" d=" M 667.20 105.22 C 666.92 103.48 667.65 102.88 669.37 103.40 C 668.92 104.35 668.20 104.96 667.20 105.22 Z" />
</g>
<g id="#545e4ea7">
<path fill="#545e4e" opacity="0.65" d=" M 681.10 109.98 C 681.55 109.69 682.43 109.12 682.87 108.83 L 682.86 109.74 L 681.95 110.34 L 681.10 109.98 Z" />
</g>
<g id="#3e433b6a">
<path fill="#3e433b" opacity="0.42" d=" M 791.73 118.27 L 792.65 118.23 L 793.30 119.10 L 793.00 119.96 C 792.68 119.54 792.05 118.70 791.73 118.27 Z" />
</g>
<g>
<path fill="#fff" opacity="1.00" d=" M 709.43 135.49 C 715.34 132.96 722.19 130.84 728.63 132.39 C 732.36 132.82 736.09 133.63 739.48 135.30 C 745.24 138.07 749.83 142.56 754.02 147.28 C 754.60 148.39 755.29 149.43 756.08 150.42 C 756.81 152.16 757.48 153.93 758.26 155.65 C 761.31 164.03 761.07 173.61 756.64 181.47 C 754.64 186.78 750.46 190.69 746.33 194.38 C 744.45 195.69 742.62 197.40 740.21 197.49 L 740.33 198.68 C 739.77 198.51 738.65 198.16 738.09 197.98 L 738.73 199.29 C 731.19 201.61 723.14 202.67 715.41 200.64 C 709.52 199.38 704.62 195.92 699.68 192.74 C 699.70 192.35 699.73 191.59 699.75 191.20 C 699.25 191.22 698.24 191.27 697.73 191.29 C 697.75 190.76 697.79 189.72 697.81 189.20 C 697.43 189.22 696.66 189.25 696.28 189.27 C 693.48 184.61 690.38 180.05 689.31 174.60 C 688.07 170.22 688.64 165.56 688.70 161.06 C 690.68 154.11 693.65 147.03 699.38 142.37 C 699.97 140.86 701.33 139.99 702.71 139.29 C 703.11 138.97 703.89 138.33 704.29 138.01 C 705.41 137.36 706.47 136.63 707.53 135.86 C 708.00 135.77 708.95 135.58 709.43 135.49 Z" />
<path fill="#fff" opacity="1.00" d=" M 627.54 391.34 C 632.12 388.24 637.89 389.64 642.39 392.13 C 642.33 392.54 642.20 393.37 642.13 393.78 C 642.57 393.77 643.45 393.74 643.89 393.73 C 644.92 396.78 646.46 399.78 646.37 403.09 C 646.41 413.03 646.41 422.98 646.39 432.92 C 646.56 437.37 643.88 441.24 640.84 444.22 C 637.15 445.64 633.06 446.39 629.25 444.98 C 626.55 444.08 624.88 441.63 622.95 439.72 C 622.19 436.87 621.42 433.98 621.59 431.01 C 621.75 420.98 621.48 410.94 621.71 400.92 C 622.55 397.26 623.76 392.98 627.54 391.34 M 630.41 394.41 C 628.17 396.28 626.60 398.88 626.65 401.88 C 626.55 411.57 626.68 421.26 626.59 430.96 C 626.46 433.57 627.19 436.10 627.68 438.65 C 628.23 439.23 628.78 439.80 629.35 440.39 C 631.61 441.01 633.98 442.04 636.37 441.35 C 637.74 440.63 639.03 439.75 640.34 438.90 C 640.70 436.25 641.62 433.68 641.46 430.98 C 641.35 421.97 641.47 412.95 641.39 403.94 C 641.40 401.69 640.77 399.52 640.42 397.33 C 639.46 396.36 638.50 395.40 637.56 394.44 C 635.17 394.37 632.78 394.37 630.41 394.41 Z" />
</g>
<g id="#23262231">
<path fill="#232622" opacity="0.19" d=" M 63.61 133.99 C 65.07 133.88 65.98 134.54 66.33 135.98 C 64.95 135.96 64.04 135.30 63.61 133.99 Z" />
</g>
<g id="#4951478e">
<path fill="#495147" opacity="0.56" d=" M 67.61 138.00 C 69.02 138.10 69.89 138.84 70.22 140.22 C 68.77 140.17 67.90 139.43 67.61 138.00 Z" />
</g>
<g id="#4e584a8b">
<path fill="#4e584a" opacity="0.55" d=" M 560.38 144.91 C 559.17 143.53 559.38 142.61 561.03 142.13 C 561.24 143.15 561.02 144.08 560.38 144.91 Z" />
</g>
<g id="#454b4387">
<path fill="#454b43" opacity="0.53" d=" M 75.66 144.98 C 77.07 145.13 77.92 145.89 78.20 147.28 C 76.75 147.18 75.90 146.42 75.66 144.98 Z" />
</g>
<g id="#25282438">
<path fill="#252824" opacity="0.22" d=" M 80.61 148.88 C 82.10 148.87 82.96 149.61 83.17 151.09 C 81.80 150.93 80.95 150.20 80.61 148.88 Z" />
</g>
<g id="#474d4374">
<path fill="#474d43" opacity="0.45" d=" M 806.86 155.37 C 808.42 155.59 808.77 156.41 807.89 157.83 C 806.88 157.36 806.54 156.54 806.86 155.37 Z" />
</g>
<g id="#5a6453ba">
<path fill="#5a6453" opacity="0.73" d=" M 795.24 162.55 C 795.97 166.46 796.02 170.48 795.26 174.39 C 794.94 170.45 794.94 166.49 795.24 162.55 Z" />
</g>
<g id="#55664fbe">
<path fill="#55664f" opacity="0.75" d=" M 50.69 170.93 C 52.22 170.92 53.06 171.68 53.20 173.20 C 51.88 172.98 51.04 172.22 50.69 170.93 Z" />
</g>
<g id="#484e4597">
<path fill="#484e45" opacity="0.59" d=" M 1256.77 177.67 C 1256.70 176.61 1257.11 175.77 1257.98 175.13 C 1258.86 176.65 1258.46 177.50 1256.77 177.67 Z" />
</g>
<g id="#42474167">
<path fill="#424741" opacity="0.40" d=" M 1387.18 182.32 L 1388.00 182.25 C 1387.74 221.14 1388.08 260.03 1387.84 298.92 L 1387.14 298.84 C 1387.06 260.00 1386.99 221.15 1387.18 182.32 Z" />
</g>
<g id="#4f594bbf">
<path fill="#4f594b" opacity="0.75" d=" M 72.62 188.91 C 74.13 188.92 74.97 189.68 75.13 191.19 C 73.79 190.97 72.95 190.21 72.62 188.91 Z" />
</g>
<g id="#555c4d9e">
<path fill="#555c4d" opacity="0.62" d=" M 643.26 196.79 C 644.47 196.85 645.09 197.50 645.12 198.73 C 643.56 198.96 642.94 198.31 643.26 196.79 Z" />
</g>
<g id="#4b544ca0">
<path fill="#4b544c" opacity="0.63" d=" M 602.20 201.84 C 603.42 201.84 604.07 202.44 604.17 203.65 C 602.64 203.99 601.98 203.39 602.20 201.84 Z" />
</g>
<g id="#4b534899">
<path fill="#4b5348" opacity="0.60" d=" M 782.49 210.33 C 781.88 208.64 782.44 207.87 784.17 208.02 C 783.97 209.06 783.41 209.82 782.49 210.33 Z" />
</g>
<g id="#b4c4aeff">
<path fill="#b4c4ae" opacity="1.00" d=" M 1027.22 236.02 C 1027.64 236.05 1028.47 236.11 1028.89 236.14 C 1029.16 237.37 1029.13 238.59 1028.79 239.81 C 1027.70 238.84 1027.27 237.42 1027.22 236.02 Z" />
</g>
<g id="#91a88bff">
<path fill="#91a88b" opacity="1.00" d=" M 375.15 237.02 C 375.56 237.03 376.40 237.05 376.82 237.06 C 377.37 237.83 377.28 240.58 375.84 239.26 C 375.66 238.70 375.32 237.58 375.15 237.02 Z" />
</g>
<g id="#474d4385">
<path fill="#474d43" opacity="0.52" d=" M 805.31 248.26 C 804.91 246.54 805.57 245.88 807.29 246.28 C 806.96 247.28 806.30 247.94 805.31 248.26 Z" />
</g>
<g id="#49524899">
<path fill="#495248" opacity="0.60" d=" M 795.56 272.53 C 796.05 271.60 796.82 271.04 797.87 270.87 C 797.97 272.61 797.20 273.16 795.56 272.53 Z" />
</g>
<g id="#596452c1">
<path fill="#596452" opacity="0.76" d=" M 715.50 282.20 C 720.80 281.94 726.10 281.96 731.40 282.21 C 726.14 283.10 720.75 283.19 715.50 282.20 Z" />
</g>
<g id="#42484075">
<path fill="#424840" opacity="0.46" d=" M 48.49 294.25 C 49.96 294.15 50.88 294.81 51.24 296.25 C 49.86 296.23 48.94 295.57 48.49 294.25 Z" />
</g>
<g id="#50594da0">
<path fill="#50594d" opacity="0.63" d=" M 619.18 293.83 C 620.22 294.02 620.94 294.61 621.35 295.60 C 619.67 296.13 618.95 295.53 619.18 293.83 Z" />
</g>
<g id="#3f443d60">
<path fill="#3f443d" opacity="0.38" d=" M 1166.97 306.00 C 1167.02 303.55 1166.58 300.91 1167.89 298.69 C 1167.85 309.85 1167.90 321.01 1167.91 332.17 C 1217.57 332.01 1267.24 332.11 1316.90 332.12 C 1317.19 321.70 1316.75 311.26 1317.16 300.84 C 1317.59 311.55 1317.63 322.30 1317.16 333.01 C 1267.16 332.89 1217.16 333.19 1167.16 332.86 C 1166.88 323.91 1167.10 314.95 1166.97 306.00 Z" />
</g>
<g id="#50594eae">
<path fill="#50594e" opacity="0.68" d=" M 15.90 309.75 C 17.40 310.01 18.11 310.90 18.04 312.42 C 16.76 311.99 16.04 311.10 15.90 309.75 Z" />
</g>
<g id="#474c4380">
<path fill="#474c43" opacity="0.50" d=" M 125.94 318.23 C 125.74 316.67 126.48 315.84 128.16 315.75 C 127.85 316.97 127.11 317.79 125.94 318.23 Z" />
</g>
<g id="#282c283c">
<path fill="#282c28" opacity="0.24" d=" M 21.75 316.97 C 23.18 317.10 24.01 317.87 24.24 319.27 C 22.81 319.15 21.98 318.38 21.75 316.97 Z" />
</g>
<g id="#3f443b5c">
<path fill="#3f443b" opacity="0.36" d=" M 691.07 327.93 C 691.57 328.11 692.56 328.46 693.06 328.64 L 692.30 329.19 L 691.28 328.82 L 691.07 327.93 Z" />
</g>
<g id="#40453e66">
<path fill="#40453e" opacity="0.40" d=" M 747.16 329.82 C 747.65 328.85 748.48 328.52 749.64 328.85 C 749.37 330.43 748.54 330.75 747.16 329.82 Z" />
</g>
<g>
<path fill="#fff" opacity="1.00" d=" M 883.32 378.72 C 884.42 378.73 885.53 378.74 886.66 378.76 C 888.72 381.04 891.42 382.90 892.65 385.82 C 892.92 385.79 893.44 385.72 893.70 385.68 L 893.72 386.21 C 892.56 386.18 891.40 386.14 890.27 386.13 C 888.20 383.79 886.01 381.04 882.50 382.18 C 881.99 383.27 881.50 384.38 881.05 385.50 C 880.61 385.36 879.75 385.10 879.32 384.97 C 879.28 385.35 879.20 386.11 879.16 386.50 C 878.14 386.13 877.12 385.76 876.12 385.39 C 876.85 385.11 877.60 384.83 878.35 384.57 C 879.68 382.36 881.54 380.56 883.32 378.72 Z" />
</g>
<g>
<path fill="#376b2e" opacity="1.00" d=" M 1017.81 381.96 C 1023.19 381.82 1028.57 381.81 1033.95 381.94 C 1034.18 422.29 1035.02 462.63 1034.99 502.99 C 1035.14 529.67 1035.78 556.33 1035.77 583.01 C 1035.57 598.59 1032.55 614.91 1023.06 627.66 C 1021.56 627.87 1020.81 628.73 1020.81 630.24 C 1014.31 637.98 1004.99 643.05 995.15 645.09 C 993.66 644.39 992.62 644.73 992.01 646.11 C 991.03 646.10 989.07 646.08 988.09 646.07 C 982.52 646.20 976.89 646.31 971.30 646.04 C 957.03 645.32 943.23 637.58 935.31 625.65 C 926.65 612.90 924.01 597.11 923.57 581.97 C 923.13 547.33 923.04 512.67 922.77 478.02 C 922.11 446.29 922.22 414.54 921.78 382.80 C 927.54 382.74 933.30 382.35 939.08 382.47 C 940.06 443.97 940.19 505.48 940.97 566.98 C 940.88 583.32 940.19 601.09 949.40 615.41 C 949.47 615.51 949.62 615.72 949.70 615.82 C 952.10 619.19 954.73 622.55 958.32 624.73 C 968.35 631.58 981.49 632.16 992.96 629.17 C 1002.77 626.51 1010.74 618.89 1014.55 609.56 C 1020.23 596.48 1019.61 581.92 1019.21 567.99 C 1019.12 505.97 1017.89 443.98 1017.81 381.96 Z" />
</g>
<g>
<path fill="#fff" opacity="1.00" d=" M 20.24 389.90 C 22.27 389.89 24.30 389.89 26.33 389.89 C 26.37 390.50 26.45 391.73 26.49 392.34 C 27.23 394.43 27.38 396.67 28.03 398.80 C 28.59 403.38 29.95 407.82 30.57 412.40 C 31.19 413.98 31.34 415.68 31.55 417.36 C 32.45 420.99 32.85 424.73 33.61 428.40 C 34.08 430.03 34.38 431.70 34.64 433.39 C 35.41 437.15 35.90 440.97 36.67 444.73 C 36.97 444.97 37.55 445.44 37.84 445.68 C 35.82 445.36 33.77 445.35 31.73 445.38 C 31.66 443.60 31.82 441.74 30.91 440.14 C 30.81 439.50 30.62 438.23 30.52 437.60 C 30.19 436.45 29.87 435.30 29.58 434.15 C 24.51 434.32 19.43 434.25 14.36 434.20 C 13.65 437.94 12.64 441.64 12.28 445.45 C 10.60 445.40 8.92 445.39 7.24 445.42 C 8.91 443.44 8.58 440.76 9.38 438.44 C 10.22 434.78 10.45 431.00 11.41 427.36 C 11.64 425.69 11.91 424.02 12.39 422.41 C 14.16 413.75 15.31 404.94 17.50 396.38 C 17.62 395.01 17.72 393.64 17.82 392.28 C 18.63 391.49 19.43 390.69 20.24 389.90 M 20.91 398.84 C 20.74 400.84 20.56 402.88 19.92 404.81 C 19.65 406.51 19.41 408.24 19.06 409.94 C 18.27 413.54 17.75 417.20 16.85 420.79 C 16.60 422.53 16.74 424.47 15.64 425.98 C 15.64 427.22 15.65 428.46 15.68 429.70 C 20.00 429.56 24.33 429.60 28.66 429.62 C 28.21 426.36 27.45 423.14 27.04 419.87 C 25.46 413.17 24.55 406.32 22.95 399.63 C 22.44 399.43 21.42 399.03 20.91 398.84 Z" />
<path fill="#fff" opacity="1.00" d=" M 363.96 391.29 C 365.79 388.76 369.64 389.87 372.19 390.67 C 372.74 392.56 373.15 394.48 373.56 396.41 C 374.25 398.32 374.36 400.36 374.54 402.38 C 375.40 404.25 375.37 406.35 375.56 408.36 C 377.14 414.98 378.37 421.70 379.63 428.39 C 380.05 430.02 380.32 431.70 380.57 433.38 C 381.62 437.36 381.57 441.63 383.45 445.39 C 381.55 445.37 379.67 445.37 377.78 445.40 C 377.83 442.38 376.72 439.52 376.54 436.53 C 376.29 435.94 375.80 434.76 375.56 434.17 C 370.51 434.27 365.46 434.30 360.42 434.17 C 359.62 437.91 358.60 441.63 358.33 445.46 C 356.65 445.41 354.98 445.39 353.31 445.38 C 353.60 444.66 354.17 443.20 354.45 442.47 C 354.72 441.07 355.02 439.68 355.44 438.33 C 355.74 434.63 356.53 431.01 357.38 427.41 C 358.82 420.43 359.83 413.36 361.40 406.41 C 361.63 404.73 361.90 403.05 362.37 401.42 C 363.06 398.07 363.65 394.70 363.96 391.29 M 366.80 399.20 C 366.67 401.03 366.51 402.88 365.89 404.63 C 365.04 410.04 364.00 415.42 362.93 420.80 C 362.57 423.76 361.89 426.66 361.38 429.61 C 365.78 429.62 370.19 429.66 374.60 429.69 C 374.61 426.62 373.88 423.67 373.13 420.73 C 372.57 418.77 372.38 416.75 372.19 414.74 C 370.82 409.62 369.80 404.37 369.18 399.11 C 368.58 399.13 367.40 399.17 366.80 399.20 Z" />
</g>
<g>
<path fill="#fff" opacity="1.00" d=" M 65.64 389.77 C 67.26 389.98 68.87 390.25 70.49 390.51 C 70.24 405.85 70.56 421.20 70.31 436.54 C 71.22 437.90 72.15 439.26 73.18 440.54 C 74.33 440.85 75.48 441.19 76.61 441.57 C 77.60 441.62 78.59 441.68 79.57 441.73 C 83.13 440.33 84.85 436.63 84.62 432.96 C 84.59 418.60 84.56 404.24 84.62 389.88 C 86.20 389.88 87.78 389.89 89.36 389.89 C 89.41 403.59 89.33 417.29 89.39 431.00 C 89.40 433.21 89.40 435.47 88.57 437.56 C 88.44 438.08 88.17 439.10 88.03 439.62 C 86.45 441.63 85.25 444.25 82.57 444.99 C 79.25 445.91 75.77 445.90 72.41 445.13 C 71.42 444.24 70.32 443.50 69.15 442.89 C 68.53 441.74 67.81 440.66 66.97 439.66 C 66.34 437.48 65.51 435.31 65.62 433.00 C 65.58 418.59 65.60 404.18 65.64 389.77 Z" />
<path fill="#fff" opacity="1.00" d=" M 271.32 390.79 C 274.94 389.24 279.08 389.08 282.67 390.81 C 284.67 391.99 286.60 393.38 287.67 395.53 C 288.17 396.61 288.69 397.69 289.23 398.77 C 289.30 400.56 289.37 402.36 289.41 404.16 C 287.83 404.15 286.25 404.14 284.68 404.14 C 284.73 401.45 284.35 398.79 283.58 396.22 C 283.15 396.24 282.31 396.27 281.89 396.29 C 281.86 395.80 281.82 394.82 281.80 394.33 C 279.34 394.30 276.88 394.27 274.42 394.30 C 272.09 395.22 271.02 397.26 270.38 399.56 C 270.39 401.50 270.40 403.45 270.42 405.40 C 270.83 406.46 271.22 407.52 271.59 408.60 C 272.72 409.91 273.78 411.27 274.69 412.75 C 275.07 412.79 275.83 412.86 276.21 412.90 C 276.22 413.25 276.24 413.94 276.25 414.29 C 280.55 416.76 283.51 420.94 287.09 424.29 C 289.90 428.93 290.13 434.65 287.97 439.60 C 287.20 440.66 286.46 441.75 285.77 442.88 C 281.49 446.32 275.08 446.63 270.30 444.03 C 265.75 440.77 265.20 434.92 264.77 429.79 C 266.54 429.78 268.32 429.78 270.11 429.80 C 270.06 433.15 269.88 436.61 271.30 439.75 C 273.95 440.70 276.72 441.30 279.49 441.83 C 283.95 440.03 285.10 435.03 284.58 430.67 C 284.13 429.60 283.73 428.52 283.38 427.42 C 279.57 420.02 270.70 417.16 266.97 409.71 C 264.99 406.39 265.65 402.42 265.68 398.76 C 266.51 397.26 267.25 395.72 267.96 394.17 C 269.08 393.04 270.21 391.92 271.32 390.79 Z" />
<path fill="#fff" opacity="1.00" d=" M 551.64 389.87 C 557.31 390.00 563.14 389.37 568.65 391.05 C 571.95 392.05 573.93 395.16 574.69 398.38 C 575.87 403.37 575.72 408.80 574.01 413.66 C 572.66 415.45 571.02 417.17 568.83 417.88 C 569.22 420.74 572.86 420.96 573.64 423.56 C 576.77 429.76 574.70 436.85 575.54 443.44 C 575.77 443.95 576.24 444.95 576.47 445.45 C 574.56 445.39 572.66 445.37 570.77 445.36 C 570.48 439.77 570.68 434.17 570.59 428.58 C 569.89 426.78 569.24 424.98 568.55 423.19 C 567.52 422.59 566.48 422.00 565.48 421.39 C 562.40 421.35 559.33 421.39 556.26 421.29 C 556.56 429.34 556.20 437.39 556.47 445.44 C 554.82 445.41 553.17 445.42 551.54 445.45 C 551.77 426.92 551.54 408.40 551.64 389.87 M 556.63 394.52 C 556.57 401.89 556.55 409.26 556.61 416.62 C 560.88 416.43 565.94 417.63 569.33 414.29 C 570.86 408.79 570.78 402.92 569.42 397.40 C 568.82 396.77 568.22 396.14 567.63 395.52 C 564.03 394.57 560.32 394.46 556.63 394.52 Z" />
</g>
<g>
<path fill="#fff" opacity="1.00" d=" M 101.63 389.88 C 103.36 389.87 105.10 389.87 106.83 389.88 C 107.59 390.67 108.35 391.47 109.11 392.28 C 112.37 404.64 116.98 416.60 120.59 428.85 C 121.11 428.88 122.15 428.94 122.67 428.97 C 122.53 415.90 122.64 402.83 122.62 389.76 C 124.25 389.83 127.08 389.65 127.07 391.98 C 127.20 409.76 127.04 427.55 127.14 445.34 C 125.29 445.37 123.44 445.41 121.60 445.49 C 120.49 442.18 119.77 438.75 118.53 435.48 C 117.24 431.14 115.76 426.86 114.41 422.54 C 112.16 416.18 110.29 409.71 108.51 403.22 C 107.91 403.18 106.72 403.09 106.12 403.05 C 106.14 417.14 106.08 431.22 106.13 445.31 C 104.60 445.35 103.08 445.41 101.56 445.48 C 101.82 426.92 101.37 408.43 101.63 389.88 Z" />
</g>
<g>
<path fill="#fff" opacity="1.00" d=" M 155.46 389.90 C 157.04 389.90 158.62 389.90 160.21 389.90 C 161.70 395.63 162.86 401.48 163.56 407.37 C 164.48 410.66 165.02 414.04 165.62 417.40 C 166.47 421.02 166.83 424.74 167.58 428.39 C 168.32 431.21 168.74 434.12 169.40 436.97 C 169.91 436.96 170.93 436.95 171.45 436.94 C 173.28 428.12 174.59 419.20 176.42 410.39 C 176.85 406.36 177.72 402.39 178.42 398.41 C 178.68 396.68 178.95 394.95 179.54 393.31 C 179.57 392.62 179.62 391.24 179.65 390.54 C 181.28 390.22 182.92 389.93 184.57 389.70 C 184.31 391.35 184.02 393.00 183.59 394.63 C 183.36 396.31 183.13 398.00 182.59 399.62 C 182.34 401.30 182.07 402.98 181.59 404.61 C 181.40 406.64 181.17 408.68 180.61 410.65 C 180.34 411.99 180.10 413.35 179.53 414.61 C 179.39 416.62 179.22 418.66 178.63 420.61 C 177.87 424.26 177.49 427.98 176.59 431.61 C 175.43 434.88 175.78 438.49 174.41 441.68 C 174.39 442.93 174.39 444.18 174.40 445.44 C 171.51 445.40 168.61 445.40 165.71 445.40 C 165.68 444.73 165.62 443.38 165.59 442.71 C 164.32 438.80 164.42 434.59 163.35 430.62 C 161.95 423.98 160.84 417.28 159.41 410.64 C 158.50 407.01 158.24 403.25 157.40 399.60 C 156.60 396.39 156.42 393.07 155.46 389.90 Z" />
</g>
<g>
<path fill="#fff" opacity="1.00" d=" M 195.63 389.86 C 202.87 389.91 210.11 389.85 217.35 389.91 C 217.36 391.43 217.39 392.94 217.42 394.47 C 212.10 394.29 206.77 394.53 201.45 394.24 C 201.13 395.38 200.78 396.51 200.42 397.64 C 200.29 403.37 200.47 409.11 200.29 414.84 C 204.94 414.85 209.58 414.86 214.23 414.86 C 214.33 416.36 214.43 417.85 214.54 419.35 C 210.18 419.34 205.81 419.51 201.45 419.28 C 201.18 419.85 200.65 420.97 200.38 421.54 C 200.41 427.17 200.40 432.81 200.38 438.45 C 200.64 439.04 201.16 440.23 201.42 440.82 C 206.72 440.66 212.04 440.80 217.35 440.74 C 217.38 442.31 217.43 443.88 217.50 445.46 C 210.18 445.39 202.86 445.25 195.55 445.49 C 195.72 426.95 195.52 408.40 195.63 389.86 Z" />
</g>
<g>
<path fill="#fff" opacity="1.00" d=" M 229.64 389.92 C 234.29 390.05 239.01 389.43 243.60 390.38 C 248.97 390.56 253.85 395.56 253.36 401.01 C 253.30 405.31 254.01 409.80 252.17 413.84 C 250.76 415.17 249.36 416.52 247.98 417.88 C 248.05 418.48 248.19 419.68 248.26 420.28 C 249.74 421.00 251.00 422.06 252.18 423.20 C 254.22 429.41 253.12 435.99 253.36 442.40 C 253.72 443.15 254.45 444.66 254.81 445.42 C 253.06 445.40 251.31 445.41 249.56 445.45 C 247.17 438.58 250.11 431.04 247.63 424.22 C 244.27 420.13 238.89 421.59 234.31 421.31 C 234.55 429.37 234.28 437.43 234.52 445.49 C 232.86 445.45 231.21 445.43 229.56 445.44 C 229.73 426.93 229.60 408.42 229.64 389.92 M 234.43 394.46 C 234.70 401.84 234.61 409.23 234.51 416.62 C 237.89 416.63 241.27 416.64 244.66 416.63 L 244.72 415.85 C 246.77 415.76 247.77 414.52 247.74 412.51 L 248.55 412.76 C 248.37 408.81 248.55 404.86 248.50 400.91 C 248.64 398.73 246.95 397.09 245.79 395.44 C 242.15 394.07 238.22 394.68 234.43 394.46 Z" />
<path fill="#fff" opacity="1.00" d=" M 808.44 390.91 C 814.72 387.78 823.42 390.52 825.73 397.40 C 826.41 399.19 826.47 401.11 826.45 403.01 C 826.36 413.69 826.51 424.38 826.34 435.06 C 826.42 439.62 822.43 442.58 819.35 445.31 C 817.03 445.46 814.69 446.24 812.38 445.66 C 808.84 445.44 806.09 443.17 803.74 440.74 C 802.60 436.60 801.61 432.35 801.70 428.03 C 801.77 419.38 801.69 410.73 801.79 402.09 C 801.65 399.66 802.96 397.56 803.90 395.43 C 804.20 394.86 804.79 393.71 805.09 393.13 C 806.28 392.51 807.39 391.76 808.44 390.91 M 810.57 394.61 L 810.62 395.68 L 809.75 395.42 C 809.01 396.46 808.28 397.50 807.54 398.53 C 807.02 406.03 807.30 413.55 807.23 421.06 C 807.33 426.60 806.84 432.19 807.77 437.69 C 808.47 438.55 809.18 439.43 809.89 440.32 C 811.95 440.84 814.03 441.27 816.15 441.59 C 817.50 440.71 819.21 440.10 819.80 438.43 L 820.35 438.63 C 820.64 436.78 821.18 434.97 821.25 433.10 C 821.46 421.96 821.16 410.82 821.43 399.69 C 820.43 398.03 819.40 396.40 818.39 394.76 C 815.78 394.56 813.18 394.56 810.57 394.61 Z" />
</g>
<g>
<path fill="#fff" opacity="1.00" d=" M 300.94 391.75 C 301.24 389.27 304.50 390.02 306.26 389.81 C 306.39 408.35 306.18 426.90 306.36 445.44 C 304.52 445.39 302.69 445.37 300.86 445.36 C 300.97 427.49 300.77 409.61 300.94 391.75 Z" />
</g>
<g>
<path fill="#fff" opacity="1.00" d=" M 318.51 390.48 C 323.23 389.64 328.11 389.62 332.86 390.21 C 338.78 390.41 342.84 396.60 343.33 402.05 C 343.48 412.34 343.40 422.64 343.37 432.94 C 343.50 437.37 340.95 441.31 337.76 444.18 C 337.22 444.26 336.14 444.44 335.60 444.53 C 330.16 446.40 324.16 444.87 318.49 445.48 C 318.67 427.15 318.63 408.81 318.51 390.48 M 324.05 394.51 C 323.23 398.96 323.70 403.49 323.60 407.99 C 323.52 418.85 323.76 429.72 323.39 440.58 C 328.07 440.26 333.60 442.09 337.37 438.40 C 339.02 433.06 338.29 427.46 338.40 421.98 C 338.46 414.89 338.30 407.80 338.48 400.72 C 337.72 399.08 337.41 397.13 335.99 395.90 C 332.33 393.85 328.05 394.75 324.05 394.51 Z" />
</g>
<g>
<path fill="#fff" opacity="1.00" d=" M 431.13 391.03 C 432.66 388.92 435.79 390.24 438.02 389.86 C 443.08 390.36 448.54 388.78 453.31 390.91 C 453.28 391.76 453.21 393.46 453.17 394.31 C 447.49 394.43 441.81 394.40 436.13 394.33 C 436.33 401.16 436.30 408.01 436.23 414.85 C 440.46 414.93 444.70 414.71 448.92 415.03 C 450.35 416.01 449.96 417.93 450.36 419.39 C 445.65 419.54 440.84 418.88 436.20 419.90 C 436.27 426.85 436.28 433.80 436.15 440.75 C 441.84 440.80 447.53 440.74 453.22 440.84 C 453.21 442.34 453.22 443.85 453.23 445.36 C 445.77 445.38 438.32 445.48 430.86 445.37 C 430.88 428.91 430.89 412.46 430.82 396.00 C 430.90 394.35 430.62 392.62 431.13 391.03 Z" />
</g>
<g>
<path fill="#fff" opacity="1.00" d=" M 482.55 390.46 C 488.33 389.61 494.53 389.16 500.04 391.51 C 502.58 392.02 503.58 394.61 505.07 396.43 C 505.23 397.42 505.40 398.42 505.58 399.43 C 506.69 404.01 506.53 408.95 505.68 413.57 C 505.25 415.36 504.71 417.12 504.07 418.85 C 501.45 419.98 499.76 422.77 496.63 422.65 C 493.60 423.56 490.44 423.27 487.34 423.18 C 487.45 430.60 487.29 438.03 487.49 445.45 C 485.84 445.42 484.18 445.43 482.54 445.46 C 482.70 427.13 482.68 408.79 482.55 390.46 M 487.57 395.06 C 487.70 402.85 487.75 410.65 487.54 418.44 C 490.47 418.35 493.40 418.27 496.34 418.36 C 497.27 417.89 498.22 417.43 499.18 416.99 C 502.11 410.83 500.24 403.73 500.43 397.17 L 499.63 397.80 C 499.58 396.23 498.63 395.39 497.14 395.30 C 494.03 394.29 490.72 394.36 487.57 395.06 Z" />
</g>
<g>
<path fill="#fff" opacity="1.00" d=" M 517.63 389.90 C 524.91 390.17 532.26 389.28 539.47 390.48 C 539.45 391.47 539.39 393.44 539.36 394.43 C 533.66 394.32 527.96 394.52 522.27 394.28 C 522.52 401.13 522.40 407.99 522.36 414.85 C 526.98 414.85 531.61 414.91 536.23 414.84 C 536.25 416.37 536.29 417.90 536.33 419.43 C 531.65 419.32 526.97 419.49 522.30 419.31 C 522.48 426.46 522.43 433.62 522.32 440.78 C 527.99 440.72 533.65 440.78 539.31 440.74 C 539.36 442.31 539.42 443.88 539.50 445.46 C 532.18 445.32 524.85 445.35 517.53 445.47 C 517.72 426.95 517.55 408.42 517.63 389.90 Z" />
</g>
<g>
<path fill="#fff" opacity="1.00" d=" M 585.58 389.91 C 594.17 389.84 602.76 389.88 611.35 389.90 C 611.36 391.41 611.38 392.92 611.42 394.44 C 608.27 394.38 605.13 394.41 602.00 394.26 C 601.42 395.42 601.10 396.67 601.21 397.99 C 601.29 413.80 601.14 429.60 601.28 445.41 C 599.46 445.39 597.65 445.38 595.84 445.38 C 595.88 428.35 595.88 411.32 595.84 394.29 C 592.43 394.43 589.02 394.37 585.61 394.40 C 585.60 392.90 585.59 391.40 585.58 389.91 Z" />
</g>
<g>
<path fill="#fff" opacity="1.00" d=" M 675.61 389.86 C 680.60 390.02 685.63 389.53 690.60 390.28 C 691.55 390.64 692.50 391.02 693.46 391.41 C 694.57 391.92 695.67 392.46 696.78 393.00 C 697.41 394.19 698.17 395.31 699.04 396.36 C 699.76 398.85 700.49 401.38 700.41 404.00 C 700.33 413.65 700.39 423.30 700.39 432.95 C 700.48 438.08 697.32 442.91 692.53 444.76 C 686.99 446.19 681.18 444.91 675.54 445.49 C 675.68 426.95 675.54 408.40 675.61 389.86 M 681.40 394.39 C 680.99 396.22 680.47 398.04 680.54 399.94 C 680.51 412.74 680.63 425.54 680.52 438.33 C 680.74 438.93 681.18 440.12 681.41 440.72 C 685.77 440.24 690.99 441.97 694.36 438.28 C 696.22 429.97 695.18 421.42 695.45 412.99 C 695.37 407.79 695.89 402.49 694.30 397.45 L 693.90 397.42 C 691.43 393.17 685.45 395.02 681.40 394.39 Z" />
<path fill="#fff" opacity="1.00" d=" M 712.52 390.48 C 719.79 389.50 727.29 389.56 734.57 390.47 C 734.50 391.44 734.37 393.38 734.31 394.35 C 728.67 394.80 722.81 393.45 717.35 395.21 C 717.38 401.75 717.40 408.29 717.31 414.83 C 721.92 414.86 726.53 414.83 731.15 414.89 C 731.20 416.38 731.24 417.88 731.30 419.39 C 726.97 419.48 722.64 419.25 718.33 419.43 C 718.09 419.65 717.62 420.08 717.38 420.30 C 717.24 427.11 717.48 433.93 717.29 440.75 C 722.94 440.71 728.60 440.76 734.25 440.77 C 734.32 442.32 734.41 443.88 734.53 445.44 C 727.19 445.35 719.85 445.37 712.52 445.47 C 712.74 427.14 712.64 408.81 712.52 390.48 Z" />
<path fill="#fff" opacity="1.00" d=" M 874.01 391.15 C 874.29 390.87 874.84 390.32 875.11 390.04 C 881.79 389.64 888.51 390.07 895.21 389.83 C 895.85 391.28 896.23 392.80 896.54 394.37 C 891.16 394.49 885.78 394.27 880.41 394.40 C 880.13 394.63 879.59 395.09 879.31 395.32 C 879.09 401.83 879.35 408.36 879.21 414.88 C 883.40 414.93 887.61 414.64 891.80 415.02 C 893.35 415.89 893.03 417.77 893.31 419.27 C 888.61 419.83 883.72 418.60 879.16 419.98 C 879.30 426.93 879.27 433.88 879.17 440.83 C 884.86 440.74 890.55 440.80 896.25 440.75 C 896.27 442.31 896.30 443.88 896.35 445.46 C 888.85 445.37 881.36 445.37 873.87 445.37 C 874.01 427.30 873.70 409.21 874.01 391.15 Z" />
</g>
<g>
<path fill="#fff" opacity="1.00" d=" M 762.60 389.73 C 764.20 389.96 765.83 390.24 767.44 390.53 C 767.44 391.22 767.43 392.59 767.42 393.28 C 770.46 406.10 772.15 419.23 774.85 432.14 C 775.19 433.72 775.36 435.33 775.52 436.95 C 776.05 436.95 777.11 436.93 777.64 436.92 C 779.53 429.65 780.71 422.21 781.85 414.78 C 783.47 410.48 783.32 405.79 784.41 401.37 C 784.65 399.67 784.87 397.96 785.54 396.37 C 785.65 394.95 785.75 393.53 785.86 392.12 C 787.43 390.03 789.72 389.70 792.13 390.46 C 791.70 390.47 790.82 390.48 790.39 390.48 C 790.54 394.29 789.49 397.99 788.54 401.65 C 788.01 407.37 786.49 412.95 785.62 418.62 C 785.35 420.30 785.08 421.98 784.61 423.61 C 783.83 427.27 783.43 431.00 782.57 434.64 C 781.97 438.26 781.23 441.87 780.52 445.47 C 777.86 445.36 775.20 445.36 772.56 445.47 C 771.97 443.22 771.62 440.93 771.41 438.63 C 770.79 437.02 770.65 435.30 770.45 433.62 C 769.51 430.32 769.38 426.86 768.38 423.58 C 767.54 417.90 766.00 412.34 765.44 406.62 C 764.52 403.34 763.97 399.97 763.40 396.62 C 762.58 394.41 762.58 392.04 762.60 389.73 Z" />
</g>
<g>
<path fill="#fff" opacity="1.00" d=" M 843.50 391.32 C 848.18 388.53 854.27 389.20 858.44 392.64 C 861.54 396.85 862.59 402.18 862.30 407.34 C 860.74 407.34 859.19 407.36 857.64 407.39 C 857.60 405.47 857.57 403.56 857.49 401.66 C 857.03 400.24 856.74 398.78 856.51 397.32 C 855.53 396.29 854.54 395.28 853.57 394.27 C 851.17 394.26 848.79 394.28 846.41 394.34 C 845.40 395.36 844.39 396.37 843.38 397.37 C 842.95 411.17 842.98 425.00 843.38 438.79 C 843.82 438.77 844.70 438.73 845.13 438.70 C 845.15 439.18 845.20 440.12 845.22 440.59 C 847.10 440.81 849.05 440.90 850.82 441.73 C 852.11 441.42 853.39 441.01 854.67 440.60 C 855.27 439.95 855.89 439.31 856.52 438.67 C 856.63 436.85 856.89 435.03 857.49 433.31 C 857.59 430.79 857.62 428.27 857.64 425.76 C 859.17 425.78 860.72 425.79 862.27 425.81 C 862.38 430.66 862.37 435.77 860.19 440.22 C 858.97 442.63 856.53 443.96 854.34 445.35 C 851.48 445.79 848.60 445.79 845.76 445.25 C 844.91 444.84 844.06 444.46 843.23 444.10 C 839.13 441.03 837.86 435.84 837.72 430.98 C 837.84 421.65 837.77 412.31 837.76 402.98 C 837.70 401.40 838.00 399.84 838.49 398.35 C 838.60 397.91 838.83 397.01 838.95 396.56 C 839.71 395.48 840.42 394.36 840.99 393.16 C 841.81 392.53 842.65 391.92 843.50 391.32 Z" />
</g>
<g id="#25282434">
<path fill="#252824" opacity="0.20" d=" M 1327.75 392.21 C 1329.48 391.64 1330.19 392.26 1329.89 394.05 C 1328.93 393.71 1328.21 393.09 1327.75 392.21 Z" />
</g>
<g id="#484e47b1">
<path fill="#484e47" opacity="0.69" d=" M 1330.92 396.10 C 1332.54 395.79 1333.14 396.48 1332.70 398.14 C 1331.62 397.85 1331.03 397.17 1330.92 396.10 Z" />
</g>
<g id="#4a504674">
<path fill="#4a5046" opacity="0.45" d=" M 949.40 615.41 C 949.47 615.51 949.62 615.72 949.70 615.82 C 949.62 615.72 949.47 615.51 949.40 615.41 Z" />
</g>
<g id="#4d544c98">
<path fill="#4d544c" opacity="0.60" d=" M 1020.81 630.24 C 1020.81 628.73 1021.56 627.87 1023.06 627.66 C 1022.87 629.01 1022.12 629.87 1020.81 630.24 Z" />
</g>
<g id="#4c534884">
<path fill="#4c5348" opacity="0.52" d=" M 992.01 646.11 C 992.62 644.73 993.66 644.39 995.15 645.09 C 994.29 646.07 993.24 646.41 992.01 646.11 Z" />
</g>
<g id="#474d4781">
<path fill="#474d47" opacity="0.51" d=" M 971.30 646.04 C 976.89 646.31 982.52 646.20 988.09 646.07 L 989.55 647.00 L 971.39 647.00 L 971.30 646.04 Z" />
</g>
</svg>
